<svg width="36" height="36" xmlns="http://www.w3.org/2000/svg"><g fill="none" fill-rule="evenodd"><path fill="#000" d="M18 1L4 7v22l14 6 14-6V7z"/><path fill="#C834F8" d="M6 27.681V8.32l12-5.143L30 8.32v19.362l-12 5.143z"/><path fill="#C834F8" d="M6 26.389V9.61l12-4.084L30 9.61v16.78l-12 4.084z"/><path fill="#FE98FF" d="M18 3.176v4.352l8 3.429 4-2.638z"/><path fill="#E438F8" d="M26 25.044l4 2.637V8.319l-4 2.639z"/><path fill="#8C28BC" d="M18 28.472v4.352l12-5.143-4-2.638z"/><path fill="#B830E4" d="M10 25.044L6 27.68l12 5.143v-4.351z"/><path fill="#E438F8" d="M6 8.319l4 2.638v14.087L6 27.68z"/><path fill="#FFF" d="M18 3.176v4.352l-8 3.429-4-2.638z"/><path fill="#540963" d="M10 18v7.043l8 3.429 8-3.429V15z"/></g></svg>