<svg id="Layer_1" data-name="Layer 1" xmlns="http://www.w3.org/2000/svg" viewBox="0 0 36 36"><defs><style>.cls-4{fill:#e73838}</style></defs><path d="M32 29V7L18 1 4 7v22l14 6 14-6z"/><path fill="#8c28bc" d="M6 27.68V8.32l12-5.14 12 5.14v19.36l-12 5.14-12-5.14z"/><path fill="#d41c3f" d="M10 25.04V10.96l8-3.43 8 3.43v14.08l-8 3.43-8-3.43z"/><path fill="#ff6850" d="M18 3.18v4.35l8 3.43 4-2.64-12-5.14z"/><path class="cls-4" d="M26 25.04l4 2.64V8.32l-4 2.64v14.08z"/><path fill="#a41348" d="M18 28.47v4.35l12-5.14-4-2.64-8 3.43z"/><path fill="#c41744" d="M10 25.04l-4 2.64 12 5.14v-4.35l-8-3.43z"/><path class="cls-4" d="M6 8.32l4 2.64v14.08l-4 2.64V8.32z"/><path fill="#fff" d="M18 3.18v4.35l-8 3.43-4-2.64 12-5.14z"/><path fill="#600034" d="M10 18v7.04l8 3.43 8-3.43V15l-16 3z"/></svg>