<svg width="24" height="24" xmlns="http://www.w3.org/2000/svg"><g fill="none"><path d="M19.147 22.667H2.933A2.32 2.32 0 01.62 20.14L2.04 3.913a2.827 2.827 0 012.813-2.58h16.214A2.32 2.32 0 0123.38 3.86l-1.42 16.227a2.827 2.827 0 01-2.813 2.58z" fill="#000"/><path d="M19.64 14.493L18.02 7.16a2.62 2.62 0 00-2.78-2.047 13.16 13.16 0 00-1.62.314.447.447 0 01-.547-.187 2.5 2.5 0 00-2.093-.933 3.333 3.333 0 00-1.707.446A2.393 2.393 0 008 6.34a.413.413 0 01-.407.393h-.06c-.526.134-1.06.227-1.573.4a2.593 2.593 0 00-1.68 2.78c.08.5.2.987.307 1.48L5.92 17.34c.066.439.227.858.473 1.227a2.567 2.567 0 002.667 1.086c.853-.16 1.7-.36 2.547-.546l5.866-1.334a2.733 2.733 0 001.407-.666 2.667 2.667 0 00.76-2.614zm-6.407-7.206l1.107.753.773-1.107L16.4 7.8l-.74 1.127 1.107.786-.88 1.274-1.114-.754-.773 1.1-1.3-.866.747-1.134-1.107-.786.893-1.26zm-6.993 3.72a2.16 2.16 0 01.34-1.674l3.533.714a.173.173 0 01.167.18 2.053 2.053 0 01-1.787 2.326 2 2 0 01-2.253-1.546zm9.38 5.96c-1.693.373-3.38.76-5.073 1.113a2.467 2.467 0 01-2.26-.667 2.493 2.493 0 01-.827-2.26 2.573 2.573 0 011.953-2.2l4.827-1.086a2.667 2.667 0 012.207.333 2.62 2.62 0 01-.827 4.733v.034zm-5.713-3.194l.76 3.387 1.906-.413-.766-3.414-1.9.44zM8.393 16a1.813 1.813 0 001.54 1.24L9.213 14a1.807 1.807 0 00-.82 2zm6.74-3.333l.714 3.246a1.813 1.813 0 00.82-1.913 1.787 1.787 0 00-1.534-1.333z" fill="#FFF"/></g></svg>