<svg viewBox="0 0 36 36" xmlns="http://www.w3.org/2000/svg"><path d="M19.518 2.005c3.95.001 7.9-.015 11.85.008a3.456 3.456 0 013.64 2.733 5.272 5.272 0 01.056 1.507q-.58 6.792-1.192 13.582c-.302 3.383-.58 6.77-.93 10.148a4.198 4.198 0 01-4.54 4.01q-11.782.014-23.563 0C2.17 33.991.73 32.497.938 29.827c.358-4.577.793-9.147 1.2-13.72.297-3.338.568-6.678.912-10.012A4.233 4.233 0 017.669 2.01c3.95-.017 7.9-.005 11.85-.004z"/><path d="M14.779 13.736c-1.205.866-1.307 5.567 3.14 2.688 3.846-2.492-.1-4.874-3.14-2.688zm17.042 4.652l-4.646-1.719a8.892 8.892 0 00-1.804-4.165l-.202-4.507-3.694 1.66a8.86 8.86 0 00-7.86.788L6.662 6.963l3.642 7.167a8.868 8.868 0 00-.104 7.576l-2.866 6.607 6.26-2.72a8.859 8.859 0 007.82.824l3.497 1.896-.44-3.783a8.941 8.941 0 002.236-3.353zm-6.549-.35a1.541 1.541 0 01-1.144 1.477 3.049 3.049 0 01-2.112-.094c.119 1.677-.466 4.136-2.503 4.136-2.156-.102-2.879-1.188-2.724-2.688a8.406 8.406 0 01.366-2.016 10.75 10.75 0 01-4.428.662 1.435 1.435 0 01-1.31-1.4v-.11a6.927 6.927 0 0113.855.021z" fill="#fff"/></svg>