<svg width="24" height="24" xmlns="http://www.w3.org/2000/svg"><g fill="none"><path d="M19.147 22.667H2.933A2.32 2.32 0 01.62 20.14L2.04 3.913a2.827 2.827 0 012.813-2.58h16.214A2.32 2.32 0 0123.38 3.86l-1.42 16.227a2.827 2.827 0 01-2.813 2.58z" fill="#000"/><path d="M11.46 16.413l1.28.667-3.667 1.847.88-1.594-1.566-1.06 1.1-2.213-2.5-1.873c-.394 1.046-.8 2.113-1.194 3.18-.071.194-.11.4-.113.606.015.654.25 1.283.667 1.787a6.547 6.547 0 002.793 2.107 5.573 5.573 0 003.147.433 2.267 2.267 0 001.66-1.107c.373-.626.766-1.246 1.153-1.866l.56-.894a16.32 16.32 0 01-3.333-.986l-.867.966zm7.407-4.846A5.487 5.487 0 0017.48 8.54c-.267-.3-.567-.573-.86-.867l.1-.22c.213-.433.42-.873.667-1.333a.56.56 0 00-.054-.587 2.82 2.82 0 00-.493-.54 3.333 3.333 0 00-2-.8.667.667 0 00-.727.42c-.2.44-.433.867-.666 1.334a.153.153 0 01-.194.1c-.333-.047-.666-.1-1.006-.134a5.427 5.427 0 00-5.407 2.92c-.19.288-.232.65-.113.974.066.164.146.322.24.473a5.8 5.8 0 001.14 1.267 15.547 15.547 0 002.886 1.953 15.613 15.613 0 005.234 1.833c.458.083.928.067 1.38-.046a.98.98 0 00.666-.474 5.333 5.333 0 00.594-3.246zm-2.434-5.514a2.507 2.507 0 01-1.66-.84.613.613 0 01-.106-.146c-.154-.334-.08-.507.32-.54a2.087 2.087 0 011.42.48 3.5 3.5 0 01.406.386.307.307 0 01.06.107c.134.347.06.467-.26.527l-.18.026z" fill="#FFF"/></g></svg>