<svg viewBox="0 0 36 36" xmlns="http://www.w3.org/2000/svg"><path d="M19.518 2.005c3.95.001 7.9-.015 11.85.008a3.456 3.456 0 013.64 2.733 5.272 5.272 0 01.056 1.507q-.58 6.792-1.192 13.582c-.302 3.383-.58 6.77-.93 10.148a4.198 4.198 0 01-4.54 4.01q-11.782.014-23.563 0C2.17 33.991.73 32.497.938 29.827c.358-4.577.793-9.147 1.2-13.72.297-3.338.568-6.678.912-10.012A4.233 4.233 0 017.669 2.01c3.95-.017 7.9-.005 11.85-.004zm.881 24.668a12.814 12.814 0 002.218 1.891 3.55 3.55 0 005.035-2.308c.608-2.068 1.118-4.166 1.615-6.265a10.774 10.774 0 00.094-4.511 11.126 11.126 0 00-9.989-9.028 10.982 10.982 0 00-11.278 7.323c-.784 2.345-1.338 4.772-1.886 7.187a3.396 3.396 0 001.347 3.544 3.603 3.603 0 003.772.467c.36-.143.695-.353 1.061-.541.44 2.302 1.427 3.587 3.126 4.055a4.316 4.316 0 004.885-1.814z"/><path d="M20.4 26.673a4.316 4.316 0 01-4.886 1.814c-1.7-.468-2.686-1.753-3.126-4.055-.366.188-.7.398-1.061.541a3.603 3.603 0 01-3.772-.467 3.396 3.396 0 01-1.347-3.544c.548-2.415 1.102-4.842 1.886-7.187a10.982 10.982 0 0111.278-7.323 11.126 11.126 0 019.99 9.028 10.774 10.774 0 01-.095 4.511c-.497 2.099-1.007 4.197-1.615 6.265a3.55 3.55 0 01-5.035 2.308 12.814 12.814 0 01-2.218-1.89zm-.687-8.296c.066-.005.25-.01.432-.029 1.223-.12 1.945-.775 1.925-1.743-.017-.878-.716-1.4-1.932-1.587a13.105 13.105 0 01-2.228-.582c-1.013-.346-1.753-.204-2.193.512a1.712 1.712 0 00.547 2.309 5.435 5.435 0 003.449 1.12zm-1.09-7.07a2.118 2.118 0 00-2.103-2.088 2.128 2.128 0 10.09 4.255 2.083 2.083 0 002.013-2.167zm6.38 1.72a2.12 2.12 0 00-2.008-2.177 2.15 2.15 0 00-2.215 2.125 2.12 2.12 0 002.097 2.094 2.058 2.058 0 002.126-2.042z" fill="#fff"/><path d="M19.713 18.377a5.435 5.435 0 01-3.45-1.12 1.712 1.712 0 01-.546-2.31c.44-.715 1.18-.857 2.193-.511a13.105 13.105 0 002.228.582c1.216.187 1.915.709 1.932 1.587.02.968-.702 1.624-1.925 1.743-.182.018-.366.024-.432.029zm-1.09-7.07a2.083 2.083 0 01-2.013 2.167 2.13 2.13 0 112.013-2.167zm6.38 1.72a2.058 2.058 0 01-2.126 2.042 2.12 2.12 0 01-2.097-2.094 2.15 2.15 0 012.215-2.125 2.12 2.12 0 012.008 2.177z"/></svg>