<svg width="24" height="24" xmlns="http://www.w3.org/2000/svg"><g fill="none"><path d="M19.147 22.667H2.933A2.32 2.32 0 01.62 20.14L2.04 3.913a2.827 2.827 0 012.813-2.58h16.214A2.32 2.32 0 0123.38 3.86l-1.42 16.227a2.827 2.827 0 01-2.813 2.58z" fill="#000"/><path d="M20.213 11.547A9.167 9.167 0 0016.28 6a7.94 7.94 0 00-6-1.2c-.95.17-1.855.526-2.667 1.047a8.18 8.18 0 00-2.98 3.486 9.007 9.007 0 00-.866 4c0 .2 0 .567.053.934.042.358.102.714.18 1.066a1.533 1.533 0 001.947 1.26c.906-.193 1.806-.4 2.713-.6L18.94 13.7c.508-.068.95-.379 1.187-.833a1.82 1.82 0 00.086-1.32zM6 15.787a.827.827 0 01-1.107-.667c0-.107 0-.213-.046-.333a2.06 2.06 0 011.12-1.754.86.86 0 011.333.707A2.047 2.047 0 016 15.787zm10.327-5.12c-.336.118-.69.177-1.047.173a4.733 4.733 0 01-3.867-2.173 2.307 2.307 0 01-.393-1.187 1.667 1.667 0 011.033-1.64 3.12 3.12 0 011.68-.22c.871.1 1.697.44 2.387.98a3.527 3.527 0 011.333 1.847 1.713 1.713 0 01-1.126 2.22zm1.28 4.753c-.04-.087-.087-.113-.194-.087l-8.44 1.887c-.393.087-.393.087-.393.487v.266c-.013.53.28 1.021.753 1.26a1.7 1.7 0 001.194.074l5.386-1.214c.413-.077.82-.182 1.22-.313A1.333 1.333 0 0018 16.227c-.108-.28-.24-.55-.393-.807z" fill="#FFF"/></g></svg>