<svg viewBox="0 0 36 36" xmlns="http://www.w3.org/2000/svg"><path d="M34.625 11.247l-20.367 9.94h1.77l1.457 3.85-4.684-.936-2.498 2.954-1.13-2.494a4.09 4.09 0 01-2.72-3.905 4.25 4.25 0 01.654-2.275l-.863-4.752 4.163 2.354 5.516-8.43v8.118L35.05 5.121m-1.39 17.126l-7.017 3.832 1.596.208.694 3.192-3.885-.486-1.388 1.526-2.225-3.495a3.429 3.429 0 01.765-4.53l4.166-3.354.139 3.123 7.516-4.128"/><path d="M19.519 2.005c3.95.001 7.9-.015 11.85.008a3.456 3.456 0 013.639 2.733 5.272 5.272 0 01.056 1.507q-.579 6.792-1.192 13.582c-.302 3.383-.58 6.77-.93 10.148a4.198 4.198 0 01-4.54 4.01q-11.782.014-23.563 0c-2.67-.002-4.11-1.496-3.9-4.166.357-4.577.793-9.147 1.2-13.72.297-3.338.567-6.678.911-10.012A4.233 4.233 0 017.669 2.01c3.95-.017 7.9-.005 11.85-.004z"/><path d="M34.02 18.135l-7.515 4.128-.14-3.123-4.165 3.354a3.429 3.429 0 00-.765 4.53l2.225 3.495 1.388-1.526 3.885.486-.694-3.192-1.596-.208 7.016-3.832zM35.06 6.25c-.14 1.67-.28 3.34-.43 5l-20.37 9.94h1.77l1.45 3.85-4.68-.94-2.5 2.95-1.13-2.49a4.089 4.089 0 01-2.72-3.9 4.175 4.175 0 01.66-2.28l-.87-4.75 4.17 2.35 5.51-8.43v8.12L35.06 5.11a4.832 4.832 0 010 1.14z" fill="#fff"/></svg>