<svg width="24" height="24" xmlns="http://www.w3.org/2000/svg"><g fill="none"><path d="M19.147 22.667H2.933A2.32 2.32 0 01.62 20.14L2.04 3.913a2.827 2.827 0 012.813-2.58h16.214A2.32 2.32 0 0123.38 3.86l-1.42 16.227a2.827 2.827 0 01-2.813 2.58z" fill="#000"/><path d="M16.993 4.1c.06.327.127.667.18.947.1.613.207 1.22.294 1.833.086.613.193 1.387.24 2.08.08 1.1.14 2.2.166 3.333.043 1.17-.096 2.34-.413 3.467a4.84 4.84 0 01-.967 1.74 6.62 6.62 0 01-6.073 2.36 6.433 6.433 0 01-2.713-1.013A6.493 6.493 0 014.96 15.16a6.787 6.787 0 01.613-5.467C5.993 9.01 6.563 8.43 7.24 8a20.267 20.267 0 014-2.04 45.12 45.12 0 015.587-1.793l.166-.067zm-8.626 8.293a3.42 3.42 0 001.78-.513 3.333 3.333 0 001.513-1.673 1.387 1.387 0 00-.193-1.5 1.573 1.573 0 00-1.12-.514 3.547 3.547 0 00-2.34.667 3.12 3.12 0 00-1.254 1.56 1.333 1.333 0 00.614 1.747 1.93 1.93 0 001 .226z" fill="#FFF"/></g></svg>