<svg width="24" height="24" xmlns="http://www.w3.org/2000/svg"><g fill="none"><path d="M19.147 22.667H2.933A2.32 2.32 0 01.62 20.14L2.04 3.913a2.827 2.827 0 012.813-2.58h16.214A2.32 2.32 0 0123.38 3.86l-1.42 16.227a2.827 2.827 0 01-2.813 2.58z" fill="#000"/><path d="M18.493 9.74l.84-4.98c-.413.06-.786.107-1.153.173l-3.6.7c-.087 0-.127 0-.153-.08-.027-.08-.114-.28-.174-.42l-.586-1.366-.08.033a40.407 40.407 0 00-5.214 3.173 13.187 13.187 0 00-2.6 2.36 6.32 6.32 0 00-1.226 5.86 6.22 6.22 0 003.053 3.94 6.44 6.44 0 004.26.767 6.233 6.233 0 003.16-1.44 13.507 13.507 0 001.967-2.147 36 36 0 003.086-4.9l.414-.786-1.994-.887zm-4.066 6.927a5.42 5.42 0 01-3.24 1.9 4.833 4.833 0 01-3.494-.6 4.293 4.293 0 01-2.1-3.067 4.947 4.947 0 011.6-4.567 5.25 5.25 0 012.94-1.446A4.773 4.773 0 0114 9.873a4.287 4.287 0 011.627 2.92v.627a5.007 5.007 0 01-1.2 3.247zm-2.854-.247a1.367 1.367 0 00-.773-.207 1.78 1.78 0 00-1.427.54.72.72 0 00.107 1.12c.242.177.533.275.833.28.462.041.922-.09 1.294-.366a.773.773 0 00-.034-1.36v-.007zm2.087-1.153a.853.853 0 00-.667.793.487.487 0 00.427.493.813.813 0 00.853-.773.487.487 0 00-.613-.507v-.006z" fill="#FFF"/></g></svg>