<svg viewBox="0 0 36 36" xmlns="http://www.w3.org/2000/svg"><path d="M16.489 33.994c-3.888 0-7.776.007-11.664-.002-2.67-.006-4.098-1.474-3.897-4.128.318-4.19.717-8.375 1.077-12.563q.452-5.257.893-10.516c.019-.228.014-.458.04-.684a4.372 4.372 0 014.514-4.085q11.869-.032 23.738-.002a3.571 3.571 0 013.882 4.201c-.282 3.552-.654 7.097-.97 10.646-.315 3.55-.605 7.102-.912 10.652-.082.956-.146 1.916-.285 2.864a4.255 4.255 0 01-4.204 3.608c-4.07.028-8.141.008-12.212.009z"/><path d="M26.97 17.375c2.388-2.15 4.303-7.38 2.153-9.768s-7.551-1.03-9.94 1.12l3.894 4.324zm-6.74 4.961l5.449-3.798-3.893-4.324-3.894-4.324-4.346 5.022-4.634-.331-2.972 2.676 3.273 3.635-1.454 1.309 2.308 2.564 2.309 2.564 1.454-1.309 3.273 3.635 2.972-2.676z" fill="#fff"/></svg>